<?xml version="1.0" encoding="UTF-8"?>
<!DOCTYPE svg PUBLIC "-//W3C//DTD SVG 1.1//EN" "http://www.w3.org/Graphics/SVG/1.1/DTD/svg11.dtd">
<svg xmlns="http://www.w3.org/2000/svg" version="1.1" width="512px" height="512px" style="shape-rendering:geometricPrecision; text-rendering:geometricPrecision; image-rendering:optimizeQuality; fill-rule:evenodd; clip-rule:evenodd" xmlns:xlink="http://www.w3.org/1999/xlink">
<g><path style="opacity:0.969" fill="#fefffe" d="M 172.5,4.5 C 185.837,4.33344 199.171,4.5001 212.5,5C 218.9,6.39939 223.066,10.2327 225,16.5C 226.979,30.3934 229.979,44.0601 234,57.5C 235.5,59 237,60.5 238.5,62C 244.281,64.0571 249.947,66.3904 255.5,69C 260.544,69.8766 265.211,68.8766 269.5,66C 278.892,58.9431 288.558,52.2764 298.5,46C 304.31,43.8775 309.977,44.2109 315.5,47C 325.401,56.2311 334.567,66.0644 343,76.5C 343.751,81.5715 343.418,86.5715 342,91.5C 335.58,101.341 328.913,111.007 322,120.5C 320.443,123.172 319.276,126.005 318.5,129C 320.942,136.325 323.775,143.492 327,150.5C 328.873,152.709 331.04,154.542 333.5,156C 346.782,158.923 360.115,161.59 373.5,164C 379.164,166.332 382.664,170.499 384,176.5C 384.5,188.829 384.667,201.162 384.5,213.5C 374.161,213.334 363.828,213.5 353.5,214C 345.143,215.372 338.643,219.539 334,226.5C 328.923,237.245 323.756,247.912 318.5,258.5C 312.031,254.53 305.698,250.363 299.5,246C 289.439,241.066 279.773,241.733 270.5,248C 263.333,255.167 256.167,262.333 249,269.5C 242.628,278.799 241.961,288.466 247,298.5C 251.748,304.994 256.248,311.661 260.5,318.5C 249.829,323.83 238.829,328.663 227.5,333C 220.539,337.643 216.372,344.143 215,352.5C 214.821,363.41 214.321,374.243 213.5,385C 200.167,385.667 186.833,385.667 173.5,385C 167.693,383.193 163.859,379.36 162,373.5C 159.766,359.661 156.766,345.994 153,332.5C 151.833,331.333 150.667,330.167 149.5,329C 141.653,324.494 133.32,321.827 124.5,321C 122.754,321.471 121.087,322.138 119.5,323C 108.772,330.726 97.772,338.059 86.5,345C 79.9097,346.185 73.9097,344.852 68.5,341C 59.9305,333.1 52.0972,324.6 45,315.5C 43,309.833 43,304.167 45,298.5C 53.4125,287.347 61.0791,275.68 68,263.5C 68.6667,261.833 68.6667,260.167 68,258.5C 65.1383,252.248 62.4716,245.915 60,239.5C 58.5,238 57,236.5 55.5,235C 41.5841,231.617 27.5841,228.617 13.5,226C 8.26942,223.768 4.76942,219.935 3,214.5C 2.23741,200.474 2.57074,186.474 4,172.5C 6.22151,168.612 9.38817,165.779 13.5,164C 27.6377,161.639 41.6377,158.639 55.5,155C 57,153.5 58.5,152 60,150.5C 62.9718,143.389 65.8052,136.223 68.5,129C 67.724,126.005 66.5574,123.172 65,120.5C 58.0865,111.007 51.4199,101.341 45,91.5C 42.8309,85.0264 43.1642,78.693 46,72.5C 54.5,64 63,55.5 71.5,47C 77.0233,44.2109 82.69,43.8775 88.5,46C 100.167,53.6667 111.833,61.3333 123.5,69C 126.167,69.6667 128.833,69.6667 131.5,69C 136.387,66.7232 141.387,64.7232 146.5,63C 150.388,60.7785 153.221,57.6118 155,53.5C 157.41,40.1149 160.077,26.7816 163,13.5C 165.406,9.59151 168.572,6.59151 172.5,4.5 Z M 182.5,135.5 C 224.727,133.894 248.394,154.061 253.5,196C 250.435,227.065 233.768,246.398 203.5,254C 167.832,256.589 144.999,240.755 135,206.5C 131.91,169.98 147.743,146.313 182.5,135.5 Z"/></g>
<g><path style="opacity:1" fill="#fefffe" d="M 352.5,231.5 C 363.203,231.262 373.87,231.762 384.5,233C 386.487,234.319 387.654,236.152 388,238.5C 389.571,249.025 391.904,259.358 395,269.5C 402.167,275.333 410.334,278.166 419.5,278C 428.167,272.333 436.833,266.667 445.5,261C 448.594,260.348 451.594,260.682 454.5,262C 460.333,267.833 466.167,273.667 472,279.5C 474.087,284.32 473.754,288.987 471,293.5C 465.941,300.228 461.274,307.228 457,314.5C 456.33,322.82 458.33,330.487 463,337.5C 464.579,339.041 466.413,340.208 468.5,341C 478.194,342.872 487.861,344.872 497.5,347C 499.667,347.833 501.167,349.333 502,351.5C 502.776,362.202 502.443,372.869 501,383.5C 499.681,385.487 497.848,386.654 495.5,387C 485.753,388.616 476.086,390.616 466.5,393C 457.732,400.952 454.898,410.452 458,421.5C 463.391,428.559 468.391,435.893 473,443.5C 473.701,446.928 473.368,450.262 472,453.5C 466.167,459.333 460.333,465.167 454.5,471C 450.5,473 446.5,473 442.5,471C 434.592,465.128 426.426,459.628 418,454.5C 409.113,455.112 401.446,458.446 395,464.5C 391.703,475.308 389.037,486.308 387,497.5C 385.681,499.487 383.848,500.654 381.5,501C 371.134,501.726 360.801,501.392 350.5,500C 349.789,498.745 348.956,497.579 348,496.5C 346.046,485.727 343.713,475.06 341,464.5C 335.746,460.403 329.912,457.237 323.5,455C 319.598,454.262 315.932,454.928 312.5,457C 305.167,462 297.833,467 290.5,472C 287.072,472.701 283.738,472.368 280.5,471C 275,465.5 269.5,460 264,454.5C 260.667,449.833 260.667,445.167 264,440.5C 269.391,433.441 274.391,426.107 279,418.5C 279.667,415.833 279.667,413.167 279,410.5C 277,405.833 275,401.167 273,396.5C 271.269,394.383 269.102,392.883 266.5,392C 256.806,390.128 247.139,388.128 237.5,386C 235.185,384.891 233.685,383.057 233,380.5C 232.244,370.464 232.577,360.464 234,350.5C 235.167,349.333 236.333,348.167 237.5,347C 248.252,345.05 258.918,342.716 269.5,340C 276.485,332.873 279.652,324.373 279,314.5C 272.94,306.103 267.273,297.437 262,288.5C 261.703,285.015 262.369,281.682 264,278.5C 269.167,273.333 274.333,268.167 279.5,263C 283.639,260.144 287.972,259.81 292.5,262C 300.156,267.83 308.156,273.163 316.5,278C 318.833,278.667 321.167,278.667 323.5,278C 328.167,276 332.833,274 337.5,272C 339.378,270.457 340.878,268.624 342,266.5C 343.872,256.806 345.872,247.139 348,237.5C 349.332,235.34 350.832,233.34 352.5,231.5 Z M 362.5,317.5 C 393.169,318.008 411.003,333.341 416,363.5C 416.177,389.667 403.677,406.5 378.5,414C 347.153,417.422 327.653,403.922 320,373.5C 318.805,343.193 332.972,324.526 362.5,317.5 Z"/></g>
</svg>
